<?xml version="1.0" standalone="no"?>
<!DOCTYPE svg PUBLIC "-//W3C//DTD SVG 20010904//EN"
 "http://www.w3.org/TR/2001/REC-SVG-20010904/DTD/svg10.dtd">
<svg version="1.0" xmlns="http://www.w3.org/2000/svg"
 width="500.000000pt" height="500.000000pt" viewBox="0 0 500.000000 500.000000"
 preserveAspectRatio="xMidYMid meet">
<metadata>
Created by potrace 1.14, written by Peter Selinger 2001-2017
</metadata>
<g transform="translate(0.000000,500.000000) scale(0.100000,-0.100000)"
fill="#000000" stroke="none">
<path d="M1213 3992 c-42 -4 -109 -66 -125 -116 -12 -35 -19 -41 -73 -60 -75
-27 -166 -82 -229 -137 -102 -90 -197 -265 -211 -390 -12 -108 -2 -99 -116
-99 -93 0 -102 -2 -124 -25 -27 -26 -33 -72 -14 -107 23 -43 61 -48 366 -48
l288 -1 100 -97 c95 -94 103 -105 165 -231 l65 -133 -25 -17 c-43 -28 -88 -75
-95 -98 -4 -17 1 -30 19 -48 14 -14 26 -35 26 -45 0 -36 37 -62 82 -58 l41 3
58 -85 c113 -165 193 -353 219 -514 14 -84 10 -254 -12 -496 -13 -158 -9 -184
34 -206 31 -16 31 -16 24 8 -16 53 -18 100 -7 199 20 179 25 407 12 498 -25
169 -103 355 -224 534 l-64 93 154 103 c85 57 156 101 158 100 12 -13 179
-288 209 -345 47 -90 86 -137 158 -190 l59 -43 -43 -3 -43 -3 -28 -84 c-34
-102 -62 -233 -78 -365 -22 -190 7 -604 44 -628 28 -18 40 -9 33 25 -45 216
-51 482 -18 687 21 125 66 297 82 314 4 4 59 7 122 6 364 -6 369 -6 447 18
l74 24 36 -36 35 -36 -33 -34 c-26 -27 -32 -40 -29 -67 2 -23 10 -37 25 -44
12 -5 24 -21 27 -37 6 -32 44 -46 81 -30 21 10 27 6 66 -46 24 -31 66 -82 95
-112 l52 -55 32 -185 c18 -106 30 -203 27 -227 -2 -24 -3 -43 -1 -43 2 0 15 5
29 12 33 15 33 51 -1 244 -14 80 -24 148 -22 149 2 2 25 -3 51 -12 41 -14 57
-14 105 -3 140 30 210 193 168 389 -8 40 -25 94 -38 120 -25 54 -121 152 -193
199 l-50 33 4 70 c3 68 4 72 46 114 70 70 89 165 50 257 -4 11 0 20 14 28 27
14 61 81 61 118 0 29 1 29 49 24 65 -6 143 21 185 63 19 18 48 61 65 96 80
160 9 311 -195 415 l-71 36 -6 48 c-18 150 -138 266 -323 314 -73 19 -166 20
-395 5 l-168 -11 -53 47 c-158 142 -359 221 -502 197 -94 -15 -153 -48 -232
-128 l-72 -71 -46 28 c-25 16 -76 39 -113 52 -63 22 -69 26 -81 63 -7 22 -30
55 -52 75 -41 37 -74 47 -137 41z m77 -57 c29 -15 60 -51 60 -70 0 -6 -41 -10
-109 -10 -92 -1 -107 1 -104 15 7 25 28 49 59 65 37 19 57 19 94 0z m863 -80
c73 -25 150 -68 218 -122 l42 -33 -38 0 c-20 0 -82 9 -138 21 -81 16 -102 18
-108 7 -14 -21 12 -36 89 -53 124 -26 333 -37 482 -25 259 19 350 11 460 -45
164 -83 217 -224 142 -377 -17 -36 -50 -85 -72 -110 -43 -50 -51 -78 -21 -78
34 0 131 128 153 203 6 20 13 37 16 37 12 0 112 -55 152 -85 121 -89 144 -218
60 -334 -52 -71 -118 -100 -204 -87 -37 6 -48 13 -70 47 -34 51 -95 110 -170
166 -46 34 -62 41 -72 32 -8 -6 -14 -15 -14 -20 0 -4 34 -33 75 -64 110 -83
175 -170 175 -234 0 -20 -11 -42 -29 -63 l-29 -33 -44 24 c-23 14 -67 46 -96
72 -67 61 -213 159 -294 198 -270 128 -564 146 -853 50 -113 -38 -113 -38
-141 59 -29 98 -6 140 100 187 102 45 179 59 326 58 142 0 229 -14 370 -59 74
-23 99 -21 87 10 -7 18 -132 59 -246 80 -108 21 -316 21 -413 1 -40 -9 -108
-31 -150 -49 l-77 -33 -44 46 c-92 94 -145 219 -133 315 16 140 150 287 288
316 59 12 140 3 221 -25z m-714 -78 c40 -14 97 -41 128 -59 47 -29 54 -36 49
-58 -24 -105 -26 -141 -11 -209 17 -74 66 -165 118 -218 l31 -33 -573 0 -572
0 6 48 c20 147 79 266 185 373 86 86 197 149 310 174 95 22 237 14 329 -18z
m-139 -634 c0 -5 -7 -17 -15 -27 -8 -11 -15 -28 -15 -38 0 -17 -22 -18 -443
-18 -331 0 -446 3 -455 12 -18 18 -15 55 6 67 20 12 922 15 922 4z m476 -10
c-19 -69 -2 -63 -166 -63 l-148 0 -13 33 c-7 17 -14 35 -17 40 -2 4 76 7 173
7 163 0 176 -1 171 -17z m-376 -42 c5 -11 10 -28 10 -39 0 -10 34 -90 76 -177
41 -86 74 -158 72 -159 -43 -31 -211 -136 -213 -134 -2 2 -33 64 -70 138 -58
117 -77 145 -143 213 l-77 77 118 0 c134 0 157 7 150 45 -3 14 0 32 7 40 18
21 57 19 70 -4z m384 -128 c9 -25 23 -54 31 -63 12 -14 13 -29 5 -91 -11 -88
-12 -253 -1 -329 5 -30 8 -56 7 -57 0 -1 -19 28 -40 64 -33 55 -38 68 -28 84
17 26 15 74 -3 89 -8 7 -15 23 -15 36 0 50 -62 80 -110 54 -17 -9 -23 -3 -51
52 -17 34 -46 95 -65 135 l-33 73 144 0 143 0 16 -47z m640 -118 c63 -62 130
-88 214 -83 58 3 59 2 113 -46 30 -27 82 -62 115 -78 56 -26 62 -32 68 -66 9
-56 7 -72 -8 -72 -7 0 -19 -7 -26 -15 -10 -13 -15 -10 -34 18 -15 23 -31 33
-53 35 -49 5 -66 -29 -61 -123 3 -72 2 -76 -16 -71 -57 15 -149 -38 -162 -92
-4 -15 -17 -39 -30 -53 -64 -68 -47 -186 33 -227 52 -27 30 -35 -108 -40 -192
-7 -317 35 -424 142 -63 63 -109 146 -141 255 -28 95 -50 305 -40 372 l7 45
78 11 c105 16 226 64 319 127 76 52 77 52 91 32 8 -12 38 -43 65 -71z m-734
-149 c0 -17 -51 -62 -80 -71 -11 -3 -20 -15 -20 -26 0 -27 37 -25 83 7 40 27
59 25 41 -4 -12 -20 -217 -163 -324 -227 -75 -45 -110 -56 -110 -32 0 19 12
31 66 65 61 38 88 67 79 81 -10 18 -29 13 -72 -19 -22 -17 -57 -37 -78 -46
-34 -14 -36 -14 -33 2 4 20 217 173 333 239 83 46 115 55 115 31z m1508 -112
c77 -54 66 -226 -18 -269 -39 -20 -66 -19 -106 6 l-34 21 -17 -32 c-36 -65
-42 -65 -24 0 10 36 28 107 41 158 20 83 26 96 54 113 38 23 74 24 104 3z
m-364 -128 c7 -18 17 -53 20 -77 4 -24 10 -57 13 -74 l5 -30 -22 20 c-33 29
-50 77 -50 140 0 62 13 71 34 21z m124 -40 c2 -16 -4 -63 -14 -105 l-18 -76
-8 67 c-6 44 -5 81 2 108 12 46 33 49 38 6z m-159 -145 c39 -27 61 -79 61
-143 0 -51 2 -58 19 -58 11 0 33 -11 48 -25 l28 -25 -65 -60 c-64 -59 -65 -59
-85 -40 -19 19 -19 20 0 33 12 9 16 20 12 32 -6 14 -13 15 -35 9 -86 -27 -202
10 -222 71 -14 44 8 105 39 105 17 0 21 -6 21 -36 0 -70 66 -133 125 -118 41
10 75 59 75 107 -1 66 -18 80 -106 88 -84 7 -102 16 -85 48 22 41 119 48 170
12z m-32 -127 c11 -30 -10 -69 -39 -72 -32 -4 -63 35 -53 68 5 16 15 20 46 20
27 0 42 -5 46 -16z m284 -25 c19 -10 18 -12 -18 -39 l-38 -28 -24 23 c-23 23
-24 25 -8 49 18 27 31 26 88 -5z m69 -63 c0 -15 -48 -66 -61 -66 -15 0 -10
-37 5 -43 7 -3 29 8 47 23 37 32 49 36 49 18 0 -12 -231 -237 -283 -275 -37
-28 -47 -29 -47 -5 0 9 23 36 50 60 49 43 66 82 34 82 -9 0 -39 -20 -66 -45
-56 -51 -89 -62 -63 -21 18 27 218 216 274 258 40 30 61 35 61 14z m141 -62
c99 -75 142 -150 157 -274 23 -189 -39 -301 -168 -303 -33 -1 -60 7 -92 25
-48 29 -155 138 -201 205 l-28 41 96 93 c53 52 103 97 110 101 8 5 35 -9 72
-36 60 -45 87 -77 117 -133 17 -35 43 -43 52 -18 13 32 -92 162 -174 215 -23
15 -23 16 -6 49 16 32 16 37 1 63 -19 33 -14 31 64 -28z"/>
<path d="M2120 2783 c-26 -10 -39 -24 -34 -37 6 -16 156 -15 161 1 10 29 -78
54 -127 36z"/>
<path d="M2543 2733 c-7 -2 -13 -13 -13 -24 0 -20 7 -22 52 -19 14 1 41 -6 58
-15 22 -11 36 -13 42 -7 36 36 -79 90 -139 65z"/>
<path d="M2040 2711 c0 -5 12 -24 27 -42 l27 -32 -27 5 c-32 6 -33 2 -10 -25
14 -15 17 -33 15 -82 -8 -148 100 -217 157 -100 49 100 -2 245 -87 245 -15 0
-44 9 -65 20 -20 11 -37 16 -37 11z m175 -121 c0 -29 -4 -36 -22 -38 -17 -3
-24 3 -29 22 -9 37 2 58 28 54 19 -2 23 -9 23 -38z m-62 -35 c1 -5 -6 -11 -15
-13 -11 -2 -18 3 -18 13 0 17 30 18 33 0z"/>
<path d="M2483 2530 c-35 -21 -43 -47 -18 -56 8 -3 24 1 37 10 34 24 57 19 95
-20 20 -22 39 -34 48 -30 49 19 -41 116 -107 116 -13 0 -38 -9 -55 -20z"/>
<path d="M2270 2306 c0 -63 52 -156 102 -182 70 -36 128 16 128 118 0 90 3 88
-121 88 -108 0 -109 0 -109 -24z m180 -41 c0 -12 -13 -15 -59 -15 -43 0 -60 4
-65 15 -4 12 6 15 59 15 51 0 65 -3 65 -15z"/>
<path d="M3101 2555 c-35 -30 -56 -85 -46 -122 9 -37 43 -83 61 -83 25 0 27
28 5 56 -21 27 -29 74 -12 74 5 0 13 -9 16 -21 9 -29 40 -20 39 11 -1 14 -5
34 -9 45 -8 20 -8 20 14 1 21 -19 22 -19 39 -2 16 16 16 19 -11 42 -36 31 -58
30 -96 -1z"/>
<path d="M2092 1727 c-56 -60 8 -156 85 -126 35 13 52 37 53 75 0 66 -92 101
-138 51z m87 -36 c13 -24 -8 -55 -35 -49 -20 3 -30 29 -20 54 8 20 43 17 55
-5z"/>
<path d="M2066 1444 c-51 -52 -17 -134 57 -134 70 0 103 85 52 135 -32 33 -75
33 -109 -1z m84 -28 c0 -2 3 -11 6 -19 9 -23 -24 -49 -47 -37 -19 10 -26 40
-12 53 7 8 53 10 53 3z"/>
<path d="M2077 1158 c-24 -19 -38 -64 -28 -91 13 -34 39 -51 77 -51 52 0 79
35 75 97 -3 46 -83 75 -124 45z m73 -43 c20 -25 8 -50 -25 -50 -21 0 -31 5
-33 18 -4 21 14 47 33 47 7 0 18 -7 25 -15z"/>
</g>
</svg>
