<?xml version="1.0" standalone="no"?>
<!DOCTYPE svg PUBLIC "-//W3C//DTD SVG 20010904//EN"
 "http://www.w3.org/TR/2001/REC-SVG-20010904/DTD/svg10.dtd">
<svg version="1.0" xmlns="http://www.w3.org/2000/svg"
 width="500.000000pt" height="500.000000pt" viewBox="0 0 500.000000 500.000000"
 preserveAspectRatio="xMidYMid meet">
<metadata>
Created by potrace 1.14, written by Peter Selinger 2001-2017
</metadata>
<g transform="translate(0.000000,500.000000) scale(0.100000,-0.100000)"
fill="#000000" stroke="none">
<path d="M2400 4231 c-23 -6 -26 -16 -45 -116 l-21 -110 -20 45 c-11 25 -31
71 -44 103 -23 55 -25 57 -62 57 -21 0 -38 -5 -38 -11 0 -12 118 -269 131
-285 5 -6 24 -8 46 -5 l38 6 32 140 c18 77 35 150 38 163 6 24 -6 27 -55 13z"/>
<path d="M2546 4183 c-3 -26 -8 -79 -11 -118 -3 -38 -8 -87 -11 -107 -6 -42
-8 -42 139 -53 l77 -7 0 35 0 35 -65 7 c-61 6 -65 8 -65 32 0 24 2 25 63 21
l62 -3 3 31 c3 35 -12 44 -80 44 -35 0 -38 2 -38 29 0 28 1 28 48 24 26 -2 57
-5 70 -7 16 -2 22 2 22 15 0 9 3 24 6 32 7 20 -10 24 -122 32 l-92 7 -6 -49z"/>
<path d="M2042 4173 c-13 -3 -25 -10 -27 -16 -3 -7 13 -75 34 -152 l39 -140
33 3 c18 1 35 5 38 7 7 8 -74 298 -84 300 -6 1 -20 0 -33 -2z"/>
<path d="M1804 4088 l-112 -50 11 -29 c13 -33 16 -34 62 -14 40 16 27 33 95
-127 34 -81 44 -89 87 -65 l22 12 -35 80 c-20 44 -42 95 -49 113 l-14 32 39
16 c22 9 40 18 40 21 0 6 -30 63 -33 62 -1 -1 -52 -23 -113 -51z"/>
<path d="M3060 4113 c-78 -29 -132 -136 -110 -214 26 -90 143 -139 227 -95 37
18 78 84 88 137 5 27 1 50 -13 81 -16 37 -29 50 -73 71 -51 26 -87 32 -119 20z
m103 -91 c30 -33 26 -89 -9 -131 -29 -35 -66 -40 -102 -15 -33 23 -31 92 4
133 30 36 81 42 107 13z"/>
<path d="M1578 3972 c-16 -9 -28 -20 -28 -24 0 -5 27 -47 60 -95 64 -92 70
-111 43 -135 -48 -41 -68 -30 -143 81 -30 44 -57 81 -60 81 -3 0 -18 -10 -33
-23 l-28 -22 61 -87 c34 -48 73 -97 88 -109 74 -58 226 39 208 135 -5 24 -129
217 -139 216 -1 0 -14 -8 -29 -18z"/>
<path d="M3323 3858 c-44 -62 -83 -119 -87 -126 -7 -12 28 -51 47 -52 4 0 22
20 39 45 35 50 35 50 62 30 18 -14 18 -16 2 -75 -17 -59 -17 -62 1 -76 49 -39
51 -38 63 24 14 71 15 73 63 94 51 24 75 74 57 117 -12 29 -136 131 -159 131
-5 0 -45 -51 -88 -112z m150 -13 c31 -29 33 -38 12 -55 -12 -10 -21 -8 -50 10
-40 25 -39 23 -23 50 17 26 28 25 61 -5z"/>
<path d="M2240 3819 c-273 -59 -482 -171 -676 -364 -194 -194 -319 -428 -370
-693 -23 -119 -22 -387 1 -497 110 -525 494 -922 1009 -1043 97 -23 133 -26
291 -26 240 -1 389 31 581 125 380 185 651 539 728 949 24 124 22 385 -4 511
-102 501 -483 899 -983 1025 -88 23 -128 27 -292 30 -163 3 -203 1 -285 -17z
m829 -420 c28 -6 53 -14 56 -19 3 -5 -16 -29 -42 -54 -28 -26 -66 -77 -91
-124 -49 -92 -48 -92 -127 -126 l-60 -26 63 6 c34 4 62 3 62 -1 0 -24 -100
-192 -150 -253 -63 -75 -114 -114 -190 -143 l-45 -17 34 -4 34 -3 -89 -66
c-105 -78 -216 -151 -221 -145 -8 8 89 232 157 364 38 72 67 132 65 132 -2 0
-30 -46 -61 -102 -111 -197 -275 -597 -256 -621 8 -10 2 -20 -24 -40 -18 -15
-34 -23 -34 -17 0 7 24 82 54 168 30 87 60 191 66 232 6 41 16 93 22 115 9 37
11 38 21 18 10 -18 12 -10 13 50 0 62 6 85 41 165 46 105 103 203 114 197 3
-3 10 -19 14 -37 8 -32 8 -31 15 22 4 30 14 69 23 85 20 39 97 113 171 164 75
52 96 54 67 7 -31 -50 -26 -50 21 0 23 25 51 50 62 56 51 28 136 34 215 17z
m469 -850 c-43 -4 -99 -17 -124 -29 -54 -24 -66 -25 -38 -6 35 24 117 45 179
44 l60 -1 -77 -8z m-209 -63 c-2 -2 -52 -37 -111 -78 -59 -40 -158 -109 -220
-153 -201 -141 -393 -219 -462 -187 -37 16 -32 38 16 86 100 97 119 140 76
170 -12 9 -17 16 -11 16 6 0 19 -8 28 -17 31 -30 13 -78 -55 -148 -33 -35 -60
-70 -60 -79 0 -43 119 -22 250 43 78 40 205 121 370 237 106 75 204 135 179
110z m-736 -143 c-7 -2 -19 -2 -25 0 -7 3 -2 5 12 5 14 0 19 -2 13 -5z"/>
<path d="M2735 2950 c-65 -5 -67 -6 -34 -14 32 -7 119 7 119 19 0 3 -3 4 -7 3
-5 -1 -39 -4 -78 -8z"/>
<path d="M2630 2787 c-36 -9 -40 -12 -20 -14 14 -2 45 3 70 11 55 17 18 19
-50 3z"/>
<path d="M2180 2190 c0 -5 5 -10 10 -10 6 0 10 5 10 10 0 6 -4 10 -10 10 -5 0
-10 -4 -10 -10z"/>
<path d="M3575 3646 l-110 -104 50 -52 c84 -87 134 -100 211 -55 74 44 107
132 73 197 -19 36 -91 118 -103 118 -6 0 -60 -47 -121 -104z m149 -27 c48 -81
-68 -174 -133 -105 l-22 23 63 57 c35 31 65 56 68 56 3 0 14 -14 24 -31z"/>
<path d="M1270 3713 c-32 -12 -91 -79 -101 -116 -27 -100 90 -224 192 -203 41
8 95 49 114 86 19 37 19 100 1 126 -14 18 -15 18 -45 -10 -25 -24 -28 -32 -20
-49 15 -26 -18 -71 -55 -75 -51 -6 -116 53 -116 107 0 28 39 63 66 58 16 -3
31 5 51 25 27 29 27 30 9 44 -20 14 -67 17 -96 7z"/>
<path d="M3798 3392 c-71 -42 -128 -80 -128 -84 0 -7 87 -156 100 -171 9 -10
60 12 60 26 0 5 -13 32 -30 59 -35 57 -36 60 -10 75 17 11 22 7 51 -41 33 -54
33 -55 61 -40 15 8 28 18 28 22 0 4 -13 29 -29 56 -27 46 -28 51 -13 63 26 19
28 17 62 -42 17 -30 36 -55 41 -55 18 0 49 20 49 31 0 15 -100 179 -108 179
-4 -1 -64 -35 -134 -78z"/>
<path d="M1000 3373 c-28 -47 -49 -91 -47 -97 4 -10 248 -156 261 -156 5 0
106 174 106 183 0 4 -13 13 -28 21 l-29 15 -33 -60 c-19 -32 -37 -59 -40 -59
-3 0 -14 6 -24 13 -17 12 -16 16 14 66 17 29 30 54 28 55 -2 1 -15 10 -30 19
l-27 17 -31 -55 c-29 -51 -33 -53 -55 -43 l-24 11 35 63 35 63 -30 15 -30 16
-51 -87z"/>
<path d="M3945 3137 c-77 -28 -142 -52 -143 -53 -5 -3 18 -74 23 -74 3 0 28 9
56 20 42 17 54 18 60 8 17 -26 8 -46 -36 -82 -48 -40 -51 -46 -32 -90 l12 -28
53 47 c48 43 54 46 82 37 63 -23 130 20 130 83 0 31 -50 186 -60 184 -3 -1
-68 -24 -145 -52z m124 -78 c15 -43 14 -56 -5 -63 -21 -8 -40 8 -53 45 -9 27
-8 31 12 39 33 13 34 13 46 -21z"/>
<path d="M886 3156 c-3 -13 -8 -30 -11 -38 -3 -8 12 -35 35 -60 l40 -47 -61
-13 c-59 -13 -63 -16 -76 -53 -7 -21 -11 -40 -9 -42 2 -2 40 5 84 16 44 12 85
21 90 21 5 0 33 -32 63 -70 29 -39 56 -67 60 -63 3 5 11 23 18 42 10 32 9 37
-24 77 -19 23 -35 45 -35 47 0 3 25 11 55 18 52 11 56 15 67 51 6 21 9 40 6
43 -2 3 -37 -4 -76 -15 -39 -11 -78 -20 -86 -20 -8 0 -38 29 -66 65 -28 36
-55 65 -60 65 -4 0 -11 -11 -14 -24z"/>
<path d="M4073 2815 c-20 -14 -25 -30 -49 -153 -4 -17 -10 -22 -27 -20 -31 4
-36 62 -8 92 16 17 20 30 15 54 -8 40 -31 42 -68 4 -47 -50 -47 -145 0 -202
21 -24 34 -30 64 -30 62 0 89 31 101 115 11 78 20 95 44 75 19 -16 19 -54 0
-74 -16 -16 -21 -81 -6 -90 15 -10 69 42 81 79 25 76 -22 165 -89 165 -20 0
-46 -7 -58 -15z"/>
<path d="M771 2704 c-7 -59 -11 -107 -9 -109 9 -6 300 -36 305 -31 4 3 12 50
19 104 13 104 11 112 -33 112 -23 0 -22 2 -39 -108 -4 -25 -9 -32 -20 -28 -9
3 -20 6 -24 6 -5 0 -7 29 -3 65 l6 65 -37 0 c-33 0 -36 -2 -36 -29 0 -64 -11
-91 -37 -91 -25 0 -25 0 -18 66 7 71 1 84 -41 84 -19 0 -21 -9 -33 -106z"/>
<path d="M893 2041 c-42 -26 -53 -49 -53 -111 0 -46 4 -56 34 -86 30 -30 40
-34 89 -34 49 0 59 4 86 31 36 36 46 66 38 117 -14 83 -121 129 -194 83z"/>
<path d="M3984 2050 c-39 -15 -74 -68 -74 -111 0 -83 47 -129 131 -129 45 0
55 4 85 34 30 30 34 40 34 85 0 59 -19 95 -61 117 -31 15 -82 18 -115 4z"/>
<path d="M3696 1541 c-20 -22 -20 -21 43 -120 15 -24 13 -23 -47 9 l-63 33
-22 -22 -22 -22 70 -64 c58 -53 72 -62 83 -51 11 11 5 21 -35 60 l-48 47 63
-31 c93 -45 103 -31 46 65 l-36 60 51 -50 c46 -45 52 -48 67 -33 14 14 10 21
-51 74 -36 33 -70 60 -74 62 -4 1 -16 -6 -25 -17z"/>
<path d="M1249 1500 c-125 -50 -122 -49 -109 -65 8 -9 21 -13 32 -9 13 4 28
-2 43 -16 20 -19 22 -26 14 -43 -8 -14 -7 -23 3 -33 12 -12 21 -2 61 70 64
114 54 136 -44 96z m41 -27 c0 -5 -9 -18 -18 -31 -16 -21 -20 -22 -31 -8 -10
12 -8 17 16 30 33 18 33 18 33 9z"/>
<path d="M1395 1406 c-6 -8 -32 -40 -59 -71 -37 -42 -46 -59 -38 -67 9 -9 19
-5 40 15 25 24 31 26 41 13 10 -12 10 -22 0 -51 -11 -30 -11 -37 3 -51 15 -15
17 -14 29 24 8 29 18 42 35 46 35 9 58 49 44 76 -11 21 -70 79 -80 80 -3 0
-10 -6 -15 -14z m58 -92 c-7 -18 -22 -18 -44 2 -14 13 -16 21 -8 36 11 20 11
20 34 -2 13 -12 21 -28 18 -36z"/>
<path d="M3507 1352 c-25 -20 -46 -40 -47 -44 0 -3 27 -38 59 -77 l59 -71 44
36 c23 20 45 38 47 40 2 2 1 11 -3 20 -5 14 -10 13 -40 -10 -40 -30 -52 -32
-59 -11 -4 8 6 24 24 38 26 20 28 25 16 36 -12 9 -21 7 -45 -14 -30 -25 -31
-25 -42 -6 -9 17 -6 24 20 42 29 22 38 43 22 53 -5 3 -29 -12 -55 -32z"/>
<path d="M3362 1245 c-28 -20 -52 -42 -52 -50 0 -17 26 -20 35 -5 12 19 25 9
65 -51 38 -55 59 -68 67 -43 2 6 -15 38 -36 72 -39 59 -39 62 -21 72 22 12 27
40 7 40 -7 0 -36 -16 -65 -35z"/>
<path d="M1516 1245 c-26 -24 -46 -63 -46 -92 0 -8 15 -30 34 -49 36 -36 69
-43 99 -20 15 11 15 15 3 25 -8 7 -25 9 -39 6 -20 -5 -29 -1 -42 19 -16 24
-16 27 2 58 29 49 93 48 93 -2 0 -10 7 -21 16 -24 21 -8 21 -8 28 9 9 23 -15
65 -45 81 -41 21 -73 17 -103 -11z"/>
<path d="M1679 1099 c-32 -64 -38 -84 -27 -90 20 -13 23 -11 41 26 l17 36 31
-16 c25 -13 30 -21 24 -38 -11 -37 -11 -60 2 -64 14 -5 97 153 88 167 -12 19
-33 10 -45 -20 -14 -35 -12 -34 -50 -15 -35 18 -35 17 -15 54 8 16 11 31 8 35
-18 18 -37 -2 -74 -75z"/>
<path d="M3186 1139 c-31 -24 -33 -52 -7 -78 16 -16 26 -17 62 -11 51 10 77
-3 57 -27 -8 -10 -23 -13 -43 -10 -18 3 -38 1 -46 -4 -12 -8 -11 -12 5 -24 54
-41 156 19 126 75 -16 31 -42 40 -86 30 -25 -6 -43 -5 -49 1 -15 15 23 40 51
33 31 -8 49 3 33 22 -17 21 -72 17 -103 -7z"/>
<path d="M1899 1072 c-61 -157 -62 -162 -33 -162 11 0 74 141 74 166 0 7 -7
15 -15 18 -11 4 -19 -3 -26 -22z"/>
<path d="M3077 1093 c-2 -5 -7 -25 -11 -46 l-7 -38 -35 26 c-28 21 -40 25 -56
18 -18 -8 -15 -13 36 -52 31 -24 56 -47 56 -52 0 -4 4 -19 9 -33 7 -18 15 -23
30 -19 18 5 18 8 7 41 -10 29 -10 51 -1 100 11 57 10 62 -6 62 -10 0 -20 -3
-22 -7z"/>
<path d="M1985 973 c8 -110 9 -113 33 -113 19 0 135 154 124 164 -16 17 -41 0
-72 -49 -19 -30 -38 -55 -42 -55 -5 0 -8 31 -8 69 0 66 -7 81 -37 81 -3 0 -2
-44 2 -97z"/>
<path d="M2813 1006 c-24 -21 -26 -27 -18 -52 9 -24 18 -29 65 -38 64 -13 77
-39 23 -44 -19 -2 -33 1 -33 7 0 6 -9 11 -20 11 -28 0 -25 -26 5 -46 34 -22
90 -11 112 23 15 23 15 28 2 52 -12 21 -24 27 -64 31 -36 4 -50 9 -50 20 0 18
41 26 58 11 8 -6 18 -6 27 0 13 8 11 13 -9 29 -31 27 -64 25 -98 -4z"/>
<path d="M2171 958 c-18 -87 -18 -132 0 -136 12 -2 18 12 27 62 7 36 15 79 18
96 6 26 3 30 -14 30 -17 0 -23 -10 -31 -52z"/>
<path d="M2265 943 c-3 -32 -8 -75 -11 -95 -5 -33 -3 -38 14 -38 22 0 31 24
32 85 l1 40 30 -67 c29 -61 60 -90 74 -68 3 5 8 50 12 100 6 87 5 92 -13 88
-15 -2 -20 -13 -22 -56 -2 -28 -7 -52 -11 -52 -4 0 -19 27 -34 60 -19 45 -31
60 -46 60 -17 0 -21 -9 -26 -57z"/>
<path d="M2499 961 c-41 -42 -41 -101 1 -143 27 -26 35 -29 68 -24 20 3 47 6
60 6 20 0 22 5 22 50 l0 50 -40 0 c-29 0 -40 -4 -40 -15 0 -9 9 -15 21 -15 11
0 19 -5 17 -12 -14 -40 -84 -34 -94 9 -11 43 7 78 42 81 19 2 36 -3 44 -12 18
-22 40 -20 40 4 0 23 -46 50 -85 50 -16 0 -38 -12 -56 -29z"/>
</g>
</svg>
